<svg xmlns="http://www.w3.org/2000/svg" viewBox="0 0 500 500"><defs><style>.cls-1{opacity:0.18;}.cls-2{fill:#e9fcff;}.cls-3,.cls-5{fill:#772626;}.cls-3{opacity:0.7;}.cls-15,.cls-4,.cls-6,.cls-8{fill:none;}.cls-10,.cls-11,.cls-12,.cls-13,.cls-15,.cls-16,.cls-4,.cls-5,.cls-6,.cls-7,.cls-8,.cls-9{stroke:#263238;}.cls-10,.cls-11,.cls-12,.cls-13,.cls-15,.cls-16,.cls-4,.cls-5,.cls-6,.cls-7{stroke-linecap:round;stroke-linejoin:round;}.cls-6{stroke-width:0.5px;}.cls-7{fill:#fff;}.cls-8,.cls-9{stroke-miterlimit:10;}.cls-8{stroke-width:2px;}.cls-13,.cls-14,.cls-9{fill:#263238;}.cls-10{fill:#7d7d7d;}.cls-11{fill:#595959;}.cls-12{fill:#a8a8a8;}.cls-15{stroke-width:0.97px;}.cls-16{fill:#9c9c9c;}</style></defs><title>Dark red</title><g id="Floor"><g class="cls-1"><path class="cls-2" d="M44.27,208.15s64-156.11,181-186.26,166.07,62,184,126,84,148.58,78,206.72c-5.71,55.26-54.13,81.39-99.36,92.61-57.49,14.25-122.82,15.33-180.52,3.45a372.84,372.84,0,0,1-40.57-11c-27.11-8.84-53.72-15.69-81.18-23-52.25-13.93-72.95-70-67-123.74C21.91,262.69,33,235.65,44.27,208.15Z"/><path class="cls-3" d="M44.27,208.15s64-156.11,181-186.26,166.07,62,184,126,84,148.58,78,206.72c-5.71,55.26-54.13,81.39-99.36,92.61-57.49,14.25-122.82,15.33-180.52,3.45a372.84,372.84,0,0,1-40.57-11c-27.11-8.84-53.72-15.69-81.18-23-52.25-13.93-72.95-70-67-123.74C21.91,262.69,33,235.65,44.27,208.15Z"/></g><rect class="cls-4" x="79.51" y="37.21" width="185.5" height="256.84" transform="translate(344.53 331.27) rotate(180)"/><line class="cls-4" x1="172.26" y1="37.36" x2="172.26" y2="294.95"/><line class="cls-4" x1="79.36" y1="166.16" x2="265.17" y2="166.16"/><line class="cls-4" x1="79.36" y1="101.66" x2="265.17" y2="101.66"/><line class="cls-4" x1="79.36" y1="230.66" x2="265.17" y2="230.66"/><line class="cls-4" x1="113.17" y1="131.43" x2="131.25" y2="148.81"/><line class="cls-4" x1="86.28" y1="105.57" x2="107.88" y2="126.34"/><line class="cls-4" x1="132.56" y1="140.53" x2="138.3" y2="146.05"/><line class="cls-4" x1="107.9" y1="116.81" x2="128.6" y2="136.72"/><line class="cls-4" x1="213.49" y1="72.62" x2="231.57" y2="90"/><line class="cls-4" x1="186.6" y1="46.76" x2="208.2" y2="67.54"/><line class="cls-4" x1="232.88" y1="81.72" x2="238.62" y2="87.24"/><line class="cls-4" x1="208.22" y1="58.01" x2="228.92" y2="77.91"/><line class="cls-4" x1="117.49" y1="199.75" x2="135.57" y2="217.13"/><line class="cls-4" x1="90.6" y1="173.89" x2="112.2" y2="194.67"/><line class="cls-4" x1="136.88" y1="208.85" x2="142.62" y2="214.37"/><line class="cls-4" x1="112.22" y1="185.14" x2="132.93" y2="205.04"/><path class="cls-5" d="M109.34,269.85l.78-6.68s3.55.2,4.92-2.89c.83-1.87,1.66-5.66.45-7.53a3.52,3.52,0,0,0-6.4.86c-1,2.71-1.41,3.87-1.41,3.87.23-3.93,3.19-19.76-5.72-17.35-3.62,1-4.62,4.48-4.78,7.24s.22,9.91.22,9.91-2.39.26-2.55-3.71-4-5.77-5.72-3.89-2.47,8.56-.61,10.65,7.75,2.82,7.75,2.82l-.39,6.71Z"/><path class="cls-6" d="M104.22,241.23s1.47,1.34,1.07,5.9-.4,12.72-.4,12.72"/><path class="cls-6" d="M100.33,244.31s-1.74-.26-1.2,3.89a62.58,62.58,0,0,1,0,10.44"/><path class="cls-6" d="M112.92,253.15s1.74.4.94,3.22-1.07,4.95-3,5.36a14.62,14.62,0,0,1-2.54.4l-.27,2.94"/><path class="cls-6" d="M96.05,261.59s-5.5.14-6.57-2.14-.4-6.16-.4-6.16"/><path class="cls-6" d="M110.64,253.89a.47.47,0,1,0,.47-.47A.47.47,0,0,0,110.64,253.89Z"/><circle class="cls-6" cx="109.51" cy="259.31" r="0.47"/><circle class="cls-6" cx="111.85" cy="257.1" r="0.47"/><circle class="cls-6" cx="102.34" cy="251.55" r="0.47"/><circle class="cls-6" cx="106.76" cy="246.99" r="0.47"/><path class="cls-6" d="M100.33,263.33a.47.47,0,1,0,.47-.47A.47.47,0,0,0,100.33,263.33Z"/><path class="cls-6" d="M105.42,262.66a.47.47,0,1,0,.47-.47A.47.47,0,0,0,105.42,262.66Z"/><circle class="cls-6" cx="101.54" cy="242.71" r="0.47"/><path class="cls-6" d="M91.56,251.61a.47.47,0,1,0,.47-.47A.47.47,0,0,0,91.56,251.61Z"/><circle class="cls-6" cx="93.23" cy="257.98" r="0.47"/><circle class="cls-6" cx="101.54" cy="257.84" r="0.47"/><polygon class="cls-7" points="90.86 265.52 114.97 265.52 112.56 285.28 93.27 285.28 90.86 265.52"/><line class="cls-5" x1="449.62" y1="229.09" x2="431.17" y2="405.82"/><line class="cls-5" x1="434.14" y1="372" x2="442.51" y2="363.17"/><path class="cls-5" d="M440,365.81a9.47,9.47,0,0,1,3.32-7.09c2.15-1.92,13.44-6.67,14.52-2.69C459,360.36,447.41,368.86,440,365.81Z"/><line class="cls-5" x1="439.97" y1="365.81" x2="450.72" y2="359.11"/><line class="cls-5" x1="432.05" y1="392.1" x2="440.41" y2="383.27"/><path class="cls-5" d="M437.87,385.91a9.46,9.46,0,0,1,3.33-7.09c2.14-1.92,13.44-6.67,14.51-2.69C456.87,380.46,445.31,389,437.87,385.91Z"/><line class="cls-5" x1="437.87" y1="385.91" x2="448.62" y2="379.21"/><line class="cls-5" x1="439.26" y1="322.95" x2="447.62" y2="314.12"/><path class="cls-5" d="M445.08,316.77a9.48,9.48,0,0,1,3.33-7.1c2.15-1.91,13.44-6.66,14.52-2.69C464.09,311.31,452.53,319.81,445.08,316.77Z"/><line class="cls-5" x1="445.08" y1="316.77" x2="455.84" y2="310.07"/><line class="cls-5" x1="437.17" y1="343.05" x2="445.53" y2="334.22"/><path class="cls-5" d="M443,336.87a9.49,9.49,0,0,1,3.32-7.1c2.15-1.91,13.45-6.66,14.52-2.69C462,331.41,450.43,339.91,443,336.87Z"/><line class="cls-5" x1="442.99" y1="336.87" x2="453.74" y2="330.17"/><line class="cls-5" x1="442.67" y1="290.3" x2="451.03" y2="281.47"/><path class="cls-5" d="M448.49,284.12a9.48,9.48,0,0,1,3.33-7.1c2.15-1.91,13.44-6.67,14.51-2.69C467.5,278.66,455.94,287.16,448.49,284.12Z"/><line class="cls-5" x1="448.49" y1="284.12" x2="459.24" y2="277.42"/><line class="cls-5" x1="446.09" y1="257.51" x2="454.45" y2="248.68"/><path class="cls-5" d="M451.91,251.32a9.46,9.46,0,0,1,3.33-7.09c2.15-1.92,13.44-6.67,14.52-2.69C470.92,245.87,459.36,254.36,451.91,251.32Z"/><line class="cls-5" x1="451.91" y1="251.32" x2="462.67" y2="244.62"/><line class="cls-5" x1="435.55" y1="360.11" x2="429.19" y2="349.74"/><path class="cls-5" d="M431.13,352.85a9.46,9.46,0,0,0-1.79-7.62c-1.71-2.32-11.78-9.3-13.65-5.63C413.66,343.59,423.22,354.29,431.13,352.85Z"/><line class="cls-5" x1="431.13" y1="352.85" x2="421.45" y2="343.6"/><line class="cls-5" x1="441.07" y1="307.21" x2="434.71" y2="296.85"/><path class="cls-5" d="M436.65,300a9.48,9.48,0,0,0-1.79-7.63c-1.71-2.32-11.78-9.3-13.65-5.63C419.18,290.7,428.74,301.4,436.65,300Z"/><line class="cls-5" x1="436.65" y1="299.96" x2="426.97" y2="290.71"/><line class="cls-5" x1="443.5" y1="283.97" x2="437.14" y2="273.6"/><path class="cls-5" d="M439.08,276.72a9.46,9.46,0,0,0-1.8-7.63c-1.7-2.32-11.77-9.3-13.64-5.63C421.61,267.45,431.16,278.15,439.08,276.72Z"/><line class="cls-5" x1="439.08" y1="276.72" x2="429.39" y2="267.46"/><line class="cls-5" x1="447.05" y1="249.89" x2="440.69" y2="239.53"/><path class="cls-5" d="M442.63,242.64a9.48,9.48,0,0,0-1.79-7.63c-1.7-2.32-11.77-9.3-13.64-5.63C425.16,233.38,434.72,244.08,442.63,242.64Z"/><line class="cls-5" x1="442.63" y1="242.64" x2="432.95" y2="233.38"/><path class="cls-5" d="M449.77,228.11a9.48,9.48,0,0,0-1.79-7.63c-1.71-2.32-11.78-9.3-13.65-5.63C432.3,218.84,441.86,229.54,449.77,228.11Z"/><line class="cls-5" x1="449.77" y1="228.11" x2="440.09" y2="218.85"/><path class="cls-5" d="M449.21,228.51a9.51,9.51,0,0,0,7.4-2.59c2.12-1.93,8-12.68,4.16-14.16C456.59,210.16,447,220.79,449.21,228.51Z"/><line class="cls-5" x1="449.21" y1="228.51" x2="457.4" y2="217.91"/><line class="cls-5" x1="400.97" y1="253.43" x2="419.31" y2="430.17"/><line class="cls-5" x1="415.25" y1="396.46" x2="421.62" y2="386.1"/><path class="cls-5" d="M419.68,389.21a9.48,9.48,0,0,1,1.79-7.63c1.71-2.31,11.78-9.29,13.65-5.62C437.15,380,427.59,390.65,419.68,389.21Z"/><line class="cls-5" x1="419.68" y1="389.21" x2="428.82" y2="380.44"/><line class="cls-5" x1="410.16" y1="347.41" x2="416.53" y2="337.05"/><path class="cls-5" d="M414.59,340.16a9.48,9.48,0,0,1,1.79-7.63c1.71-2.31,11.78-9.29,13.65-5.62C432.06,330.91,422.5,341.6,414.59,340.16Z"/><line class="cls-5" x1="414.59" y1="340.16" x2="423.73" y2="331.39"/><line class="cls-5" x1="412.25" y1="367.51" x2="418.61" y2="357.15"/><path class="cls-5" d="M416.67,360.26a9.44,9.44,0,0,1,1.8-7.62c1.7-2.32,11.78-9.3,13.65-5.63C434.15,351,424.58,361.7,416.67,360.26Z"/><line class="cls-5" x1="416.67" y1="360.26" x2="425.82" y2="351.49"/><line class="cls-5" x1="406.78" y1="314.76" x2="413.14" y2="304.4"/><path class="cls-5" d="M411.2,307.51a9.48,9.48,0,0,1,1.79-7.63c1.71-2.32,11.79-9.29,13.65-5.62C428.67,298.25,419.11,309,411.2,307.51Z"/><line class="cls-5" x1="411.2" y1="307.51" x2="420.34" y2="298.74"/><line class="cls-5" x1="403.37" y1="281.96" x2="409.74" y2="271.6"/><path class="cls-5" d="M407.8,274.71a9.46,9.46,0,0,1,1.79-7.62c1.71-2.32,11.78-9.3,13.65-5.62C425.27,265.46,415.71,276.16,407.8,274.71Z"/><line class="cls-5" x1="407.8" y1="274.71" x2="416.94" y2="265.94"/><line class="cls-5" x1="414.18" y1="384.53" x2="405.82" y2="375.7"/><path class="cls-5" d="M408.36,378.35a9.49,9.49,0,0,0-3.32-7.1c-2.15-1.92-13.44-6.67-14.51-2.7C389.36,372.88,400.92,381.38,408.36,378.35Z"/><line class="cls-5" x1="408.36" y1="378.35" x2="396.98" y2="371.28"/><line class="cls-5" x1="408.69" y1="331.64" x2="400.34" y2="322.8"/><path class="cls-5" d="M402.87,325.45a9.42,9.42,0,0,0-3.32-7.09c-2.14-1.92-13.44-6.68-14.51-2.7C383.87,320,395.43,328.49,402.87,325.45Z"/><line class="cls-5" x1="402.87" y1="325.45" x2="391.49" y2="318.39"/><line class="cls-5" x1="406.28" y1="308.39" x2="397.92" y2="299.56"/><path class="cls-5" d="M400.46,302.2a9.47,9.47,0,0,0-3.32-7.09c-2.15-1.92-13.44-6.68-14.51-2.7C381.46,296.74,393,305.24,400.46,302.2Z"/><line class="cls-5" x1="400.46" y1="302.2" x2="389.08" y2="295.14"/><line class="cls-5" x1="402.74" y1="274.31" x2="394.39" y2="265.48"/><path class="cls-5" d="M396.93,268.13a9.48,9.48,0,0,0-3.33-7.1c-2.14-1.92-13.44-6.68-14.51-2.7C377.92,262.66,389.48,271.16,396.93,268.13Z"/><line class="cls-5" x1="396.93" y1="268.13" x2="385.54" y2="261.06"/><path class="cls-5" d="M400.92,252.43a9.46,9.46,0,0,0-3.33-7.09c-2.14-1.92-13.43-6.68-14.51-2.7C381.91,247,393.47,255.47,400.92,252.43Z"/><line class="cls-5" x1="400.92" y1="252.43" x2="389.54" y2="245.37"/><path class="cls-5" d="M400.45,252.94a9.48,9.48,0,0,0,6.71-4.05c1.68-2.33,5.23-14.06,1.16-14.71C403.9,233.47,396.65,245.85,400.45,252.94Z"/><line class="cls-5" x1="400.45" y1="252.94" x2="406.28" y2="240.88"/><line class="cls-8" x1="421.99" y1="181.46" x2="421.99" y2="404.96"/><line class="cls-5" x1="421.81" y1="371.36" x2="429.21" y2="361.7"/><path class="cls-5" d="M427,364.6a9.45,9.45,0,0,1,2.57-7.4c1.93-2.13,12.68-8,14.15-4.18C445.29,357.2,434.68,366.85,427,364.6Z"/><line class="cls-5" x1="426.96" y1="364.6" x2="436.95" y2="356.82"/><line class="cls-5" x1="421.81" y1="329.35" x2="429.21" y2="319.7"/><path class="cls-5" d="M427,322.6a9.45,9.45,0,0,1,2.57-7.4c1.93-2.13,12.68-8,14.15-4.19C445.29,315.2,434.68,324.85,427,322.6Z"/><line class="cls-5" x1="426.96" y1="322.6" x2="436.95" y2="314.82"/><line class="cls-5" x1="421.81" y1="280.04" x2="429.21" y2="270.39"/><path class="cls-5" d="M427,273.28a9.45,9.45,0,0,1,2.57-7.4c1.93-2.13,12.68-8,14.15-4.18C445.29,265.88,434.68,275.53,427,273.28Z"/><line class="cls-5" x1="426.96" y1="273.28" x2="436.95" y2="265.5"/><line class="cls-5" x1="421.81" y1="247.21" x2="429.21" y2="237.56"/><path class="cls-5" d="M427,240.45a9.42,9.42,0,0,1,2.57-7.39c1.93-2.13,12.68-8,14.15-4.19C445.29,233.06,434.68,242.71,427,240.45Z"/><line class="cls-5" x1="426.96" y1="240.45" x2="436.95" y2="232.67"/><line class="cls-5" x1="421.81" y1="214.24" x2="429.21" y2="204.59"/><path class="cls-5" d="M427,207.48a9.45,9.45,0,0,1,2.57-7.4c1.93-2.13,12.68-8,14.15-4.18C445.29,200.08,434.68,209.74,427,207.48Z"/><line class="cls-5" x1="426.96" y1="207.48" x2="436.95" y2="199.7"/><line class="cls-5" x1="421.97" y1="384.18" x2="414.57" y2="374.53"/><path class="cls-5" d="M416.82,377.43a9.44,9.44,0,0,0-2.57-7.4c-1.94-2.13-12.68-8-14.16-4.19C398.49,370,409.1,379.68,416.82,377.43Z"/><line class="cls-5" x1="416.82" y1="377.43" x2="406.23" y2="369.23"/><line class="cls-5" x1="421.97" y1="317.38" x2="414.57" y2="307.73"/><path class="cls-5" d="M416.82,310.62a9.45,9.45,0,0,0-2.57-7.4c-1.94-2.13-12.68-8-14.16-4.18C398.49,303.22,409.1,312.87,416.82,310.62Z"/><line class="cls-5" x1="416.82" y1="310.62" x2="406.23" y2="302.42"/><line class="cls-5" x1="421.97" y1="284.41" x2="414.57" y2="274.76"/><path class="cls-5" d="M416.82,277.65a9.45,9.45,0,0,0-2.57-7.4c-1.94-2.13-12.68-8-14.16-4.18C398.49,270.25,409.1,279.9,416.82,277.65Z"/><line class="cls-5" x1="416.82" y1="277.65" x2="406.23" y2="269.45"/><line class="cls-5" x1="421.97" y1="240.83" x2="414.57" y2="231.18"/><path class="cls-5" d="M416.82,234.07a9.45,9.45,0,0,0-2.57-7.4c-1.94-2.13-12.68-8-14.16-4.18C398.49,226.67,409.1,236.32,416.82,234.07Z"/><line class="cls-5" x1="416.82" y1="234.07" x2="406.23" y2="225.87"/><line class="cls-5" x1="421.97" y1="206.57" x2="414.57" y2="196.91"/><path class="cls-5" d="M416.82,199.81a9.45,9.45,0,0,0-2.57-7.4c-1.94-2.13-12.68-8-14.16-4.18C398.49,192.41,409.1,202.06,416.82,199.81Z"/><line class="cls-5" x1="416.82" y1="199.81" x2="406.23" y2="191.61"/><path class="cls-5" d="M422.41,184.61a9.45,9.45,0,0,0-2.57-7.4c-1.94-2.12-12.68-8-14.16-4.18C404.08,177.21,414.69,186.87,422.41,184.61Z"/><line class="cls-5" x1="422.41" y1="184.61" x2="411.82" y2="176.41"/><path class="cls-5" d="M421.9,185.07a9.45,9.45,0,0,0,7.09-3.34c1.91-2.14,6.65-13.44,2.67-14.51C427.33,166.06,418.85,177.63,421.9,185.07Z"/><line class="cls-5" x1="421.9" y1="185.07" x2="428.94" y2="173.68"/><polygon class="cls-9" points="412.79 462.93 436.46 462.93 439.42 403.15 409.83 403.15 412.79 462.93"/><polygon class="cls-10" points="198.92 220 125.94 220 142.94 282.62 215.92 282.62 198.92 220"/><polygon class="cls-4" points="197.17 222.33 129.62 222.33 145.36 280.29 212.91 280.29 197.17 222.33"/><rect class="cls-10" x="142.93" y="279.3" width="102.32" height="3.33" transform="translate(388.19 561.92) rotate(180)"/><rect class="cls-11" x="142.93" y="279.3" width="47.02" height="3.33" transform="translate(332.89 561.92) rotate(180)"/><rect class="cls-7" x="272.48" y="287.93" width="5.5" height="174.61" transform="translate(550.46 750.47) rotate(180)"/><rect class="cls-12" x="277.98" y="287.93" width="4.7" height="174.61"/><rect class="cls-7" x="131.59" y="379.29" width="5.5" height="83.25" transform="translate(268.67 841.84) rotate(180)"/><rect class="cls-12" x="137.09" y="379.29" width="4.7" height="83.25"/><rect class="cls-7" x="72.69" y="379.29" width="5.5" height="83.25" transform="translate(150.89 841.84) rotate(180)"/><rect class="cls-12" x="78.19" y="379.29" width="4.7" height="83.25"/><rect class="cls-12" x="137.94" y="289.63" width="53.66" height="94.42"/><rect class="cls-7" x="67.23" y="289.63" width="70.71" height="94.42" transform="translate(205.18 673.67) rotate(180)"/><polygon class="cls-13" points="137.94 289.63 191.6 289.63 191.6 294.23 137.94 294.23 67.23 294.23 67.23 289.63 137.94 289.63"/><rect class="cls-7" x="141.27" y="295.04" width="45.75" height="22.04" transform="translate(328.3 612.12) rotate(180)"/><rect class="cls-14" x="158.12" y="303.98" width="12.06" height="4.16" transform="translate(328.3 612.12) rotate(180)"/><rect class="cls-7" x="141.27" y="325.4" width="45.75" height="22.04" transform="translate(328.3 672.84) rotate(180)"/><rect class="cls-14" x="158.12" y="333.93" width="12.06" height="4.16" transform="translate(328.3 672.01) rotate(180)"/><rect class="cls-7" x="141.27" y="355.76" width="45.75" height="22.04" transform="translate(328.3 733.57) rotate(180)"/><rect class="cls-14" x="158.12" y="363.87" width="12.06" height="4.16" transform="translate(328.3 731.91) rotate(180)"/><rect class="cls-12" x="59.94" y="285.48" width="230.33" height="5.49" transform="translate(350.21 576.45) rotate(180)"/><rect class="cls-7" x="59.94" y="285.48" width="69.55" height="5.49" transform="translate(189.43 576.45) rotate(180)"/><path class="cls-7" d="M270.74,341.36s-6.87,4.75-17,34.11c-3.39,9.76-22.39,62.39-23.39,66s-3,8-6,8-14-14-12.67-15.66,7.67-8.34,7.67-8.34,3.78-42.6,4.45-54.6S221.7,344.47,228,334.8s34.34.33,34.34.33Z"/><path class="cls-5" d="M216.31,425.52a4.45,4.45,0,0,1,2.33,4.34c-.33,3-3.33,7-3.33,7s6.33,5,9.67,5.33,7,1,7,2-2.67,2.67-4.34,6.33a80.39,80.39,0,0,1-6.33,10.67c-1,1.33-1.67,2.33-5.33,1.33s-11.67-8.33-16-11.33-17.34-5-19.67-6.67-9.67-12.33-6.33-14.33,4.33.33,8.33,1.33,15.67-.33,22-1.66,8.33-1.67,8.33-1.67Z"/><path class="cls-7" d="M221.85,460.43c-.22.32-.41.58-.54.76-1,1.33-1.67,2.33-5.33,1.33s-11.67-8.33-16-11.33-17.34-5-19.67-6.67-9.67-12.33-6.33-14.33a5.6,5.6,0,0,1,1.51-.66c-.06.22-.12.42-.18.66-1,4,2.33,8,5.33,11s13,2.33,24,8A107.46,107.46,0,0,1,221.85,460.43Z"/><path class="cls-13" d="M222.16,392.17c.72-8.77,1.36-17,1.6-21.25.66-12-2.06-26.45,4.27-36.12s34.34.33,34.34.33l8.37,6.23s-6.87,4.75-17,34.11c-1.3,3.73-4.88,13.74-8.86,24.87Z"/><path class="cls-7" d="M238.49,170.38a19,19,0,0,0-1.21,7.25c.3,3.33,3.32,4.84,3.62,3.94a21,21,0,0,0,.31-4.54v-1.21a15,15,0,0,0,2.72,3.33c2.12,2.11,3.33,1.51,4.23,1.51s1.21-3-.3-5.14S241.51,168.56,238.49,170.38Z"/><path class="cls-7" d="M231.53,178.24c3-1.82,7.56,4.54,14.52,3,.88-.19,1.21-1.51-.31-4.53s-6.35-5.45-8.77-7.26-4.23-3.33-4.23-5.45,5.44,1.21,7,2.42a49.12,49.12,0,0,0,5.7,3.05l1.3.07c2.7.17,6.84.65,8.42,2,2.05,1.79,3.23,7.94,3.73,10.31,1.34,1.94,2.54,3.73,3.23,4.81,2.11,3.32,44.76,34.48,44.76,34.48l-3,26.61-48.39-55a13.23,13.23,0,0,0-4.53-2.42c-3.33-1.21-7.87-2.12-11.8-4.24a90.61,90.61,0,0,1-8.47-5.14C228.57,179.64,229.89,179.22,231.53,178.24Z"/><path class="cls-5" d="M282.39,203c11.84,8.94,24.45,18.15,24.45,18.15l-3,26.61L274.09,214Z"/><path class="cls-7" d="M297.27,303.67s-21.34-1-52.34,4S202.33,318,203.27,324c3.77,24.34,60.61,104.47,60.61,104.47l-1,11.33s2,2.67,9,3,15.66-9.66,15.66-9.66-7.82-8.1-10.82-17.76-27.12-72.05-27.12-72.05,31.67,7,66.67.67S297.27,303.67,297.27,303.67Z"/><path class="cls-13" d="M244.93,307.67c31-5,52.34-4,52.34-4s54,34,19,40.33-66.67-.67-66.67-.67,10,26,18,47l-23.51,9c-16.79-25.46-38.51-60.62-40.79-75.35C202.33,318,213.93,312.67,244.93,307.67Z"/><path class="cls-5" d="M263.88,428.47a5.52,5.52,0,0,1,3,3,43.21,43.21,0,0,1,1.66,4.67,61.06,61.06,0,0,0,10.67-3.34,59.72,59.72,0,0,0,7.33-4s3,.34,3,2.34a26,26,0,0,0,1.67,9c.86,2.14,2.69,6.91,3.88,10a2.72,2.72,0,0,1-1.95,3.62c-5.28,1.17-16.41,3.74-25.93,6.67-13,4-27.33,2-29,1.67s-8.33-4.34-5.33-7,20.66-9.67,24.33-14.34S263.88,428.47,263.88,428.47Z"/><path class="cls-7" d="M234.21,454.2c0,3.31,1.7,6.6,7,6.6s14.67-.66,28-6a175.59,175.59,0,0,1,24.72-7.64c.41,1.07.81,2.12,1.16,3a2.72,2.72,0,0,1-1.95,3.62c-5.28,1.17-16.41,3.74-25.93,6.67-13,4-27.33,2-29,1.67s-8.33-4.34-5.33-7A9.64,9.64,0,0,1,234.21,454.2Z"/><path class="cls-5" d="M364.6,226s3.63,28.74,3.33,34.18-4.23,52.32-5.14,62.61-5.14,19.35-12.7,21.17-27.22,4.53-35.69,2.42S296.86,325.23,293.83,318s-5.14-11.8-4.23-13.31,4.84-4.84,4.84-4.84,7.56-55,9.37-69.26.91-15.42,7.56-20.87S352.51,199.71,364.6,226Z"/><path class="cls-4" d="M316.21,326.31c1.09.83,2.22,1.62,3.39,2.36"/><path class="cls-4" d="M296.27,302s6.42,12.6,17.05,21.94"/><path class="cls-4" d="M300.93,302.67s10.34,9.66,20.67,15.66"/><path class="cls-7" d="M292.62,135.59a59.94,59.94,0,0,0-3.93,10.89c-.91,4.54-1.21,8.77-3.33,9.68s-6,1.21-5.44,3.63,4.54,6.35,4.54,6.35-.91,14.52-.61,17.24,16.33,2.72,17.24,2.72,10,21.48,10,21.48l25.41-12.71-4.84-15.72s7.86-15.13,8.47-21.78-14.82-18.75-23.59-21.47S292.62,135.59,292.62,135.59Z"/><polygon class="cls-13" points="301.09 186.1 309.16 183.8 306.14 195.61 301.09 186.1"/><path class="cls-14" d="M289.63,152.7c-.41,1.71-.21,3.22.44,3.37s1.51-1.1,1.91-2.8.22-3.22-.43-3.37S290,151,289.63,152.7Z"/><path class="cls-4" d="M294.74,168.86s-3.63,2.73-7,1.52"/><path class="cls-13" d="M294.14,129.85s-4.24,7.56-1.21,12.4,10.28,6.95,14.21,11.49,6.05,12.4,7.56,13,6.05-8.47,8.77-7.87,7.26,7,3.33,13.61a11.49,11.49,0,0,1-10.89,5.75s10.89,5.75,13,5.75,8.46-3.63,11.49-7,13.91-13.31,14.52-21.47-10.29-18.45-10.29-18.45,13-.91,9.68-5.75-15.12-7.86-15.12-7.86,2.12-7.56-.91-9.08S316.82,119,316.82,119s5.14-6.65-2.12-7S295,120.77,294.14,129.85Z"/><line class="cls-4" x1="318.2" y1="162.69" x2="279.62" y2="147.09"/><path class="cls-4" d="M289.68,144.9a6.89,6.89,0,0,0-2.65-.53,6.8,6.8,0,0,0-3.33,12.74"/><path class="cls-5" d="M303.81,216s.29-8.77,2.57-11.19,19.1-12.4,26.8-14.51,15.68.9,20.81,2.72,8.55,6.95,10.54,18.15,2.29,18.14-2,18.75-10.26-13-23.66-15.73-25.66-.3-28.51,1.21S303.81,216,303.81,216Z"/><path class="cls-15" d="M347.11,206.76c2.57,1,4.31,1.72,4.31,1.72"/><path class="cls-15" d="M303.81,216s18-10.58,24.52-12.7c3.42-1.1,9.57.35,14.66,2"/><path class="cls-7" d="M214,265.2s1,6.29,2.16,7,1.08-5.84,1.08-5.84,1.43,3.77,2.33,4.67.36-3.86.36-3.86l-1-4.49Z"/><path class="cls-7" d="M226.81,259l-9.28.15s-2.45.35-2.8,1.75a42.88,42.88,0,0,1-1.75,4.55l14.35-4.2Z"/><path class="cls-7" d="M223.48,261.93s-12.95-1.75-13.3-.7c-.26.79-1.27,7.91-1.48,10.21a.37.37,0,0,0,.66.25l3.62-6.26,9.8.7S225.58,263.68,223.48,261.93Z"/><path class="cls-5" d="M331,222.72s8.05,5.95,5.25,20.66-22.4,55-24.15,58.46-9.46,3.85-13,2.8-65.81-25.9-65.81-25.9-6.66-1.76-7.71-3.16-7.7-8.75-7.7-8.75-10.5,1.4-12.95.7,2.45-1.4,4.9-2.1c1.89-.54,12.3-4.61,17-6.45a3.66,3.66,0,0,1,4,.85c3.28,3.36,10.27,10.49,11.6,11.55,1.75,1.4,51.11,9.81,51.11,9.81s11.55-54.27,16.11-58.82,12.6-3.5,12.6-3.5"/><path class="cls-7" d="M265.85,291.68c-16.35-6.48-32.56-12.94-32.56-12.94s-6.66-1.76-7.71-3.16-7.7-8.75-7.7-8.75-10.5,1.4-12.95.7,2.45-1.4,4.9-2.1c1.89-.54,12.3-4.61,17-6.45a3.66,3.66,0,0,1,4,.85c3.28,3.36,10.27,10.49,11.6,11.55.91.73,14.7,3.35,27.72,5.7Z"/><path class="cls-16" d="M375.27,360.58l15.24,101.34a.83.83,0,0,1-1.6.41l-23-100.08Z"/><path class="cls-16" d="M352.51,361.25l-6.64,100.48a.83.83,0,0,1-1.65,0l-1.16-101.29Z"/><path class="cls-16" d="M330.14,362.77l-18.2,98.73a.83.83,0,0,1-1.63-.26l10.6-100.63Z"/><path class="cls-16" d="M295,361.93l-14.89,99.4a.83.83,0,0,1-1.65-.19l7.23-101Z"/><path class="cls-7" d="M309.19,341.7s17.5-5.84,25.67-26.84,21.59-57.18,30.93-61.85,27.42,4.08,28.59,37.92-1.57,59-9.11,67.32c-6.67,7.33-18,16.67-57.34,17.33-35.12.6-49.47-12.79-54.33-17.33S260.76,344,267.18,344,301,344,309.19,341.7Z"/><path class="cls-7" d="M228.33,134s6.84-8,16.32-9.49,10.13,12.35-2,18.42a20.2,20.2,0,0,1-10.89,1.7s9.68,11.45,3.42,13.28c-14.06,4.12-11-17.46-11-17.46Z"/><path class="cls-7" d="M226,133.45s4-9.71,1-18.85-14.9-2.93-14.77,10.64a20.67,20.67,0,0,0,2.73,10s-15.26-3.25-13.38,3c4.27,14.21,20.55,1.85,20.55,1.85Z"/><path class="cls-14" d="M220.74,145.58a1,1,0,0,0,.86-.49l9.49-15.94a1,1,0,1,0-1.72-1l-9.49,15.94a1,1,0,0,0,.35,1.37A1.06,1.06,0,0,0,220.74,145.58Z"/><path class="cls-4" d="M229.47,130.54s3.42-7.21,9.49-8"/><path class="cls-4" d="M229.37,128.13s2-5.94.48-9.74"/><path class="cls-5" d="M235.42,134.87c.36,1.76,3,2.72,5.86,2.14s4.92-2.49,4.57-4.25-3-2.73-5.87-2.14S235.06,133.1,235.42,134.87Z"/><path class="cls-5" d="M228.32,147.27c-1,.67-1,2.55.13,4.22s2.8,2.46,3.82,1.79,1-2.55-.13-4.22S229.34,146.6,228.32,147.27Z"/><path class="cls-5" d="M207.48,138.9c0,1.22,1.58,2.23,3.57,2.26s3.61-.94,3.63-2.16-1.59-2.23-3.57-2.26S207.49,137.69,207.48,138.9Z"/><path class="cls-5" d="M219.8,128.46c1.79.2,3.5-2,3.83-4.93s-.87-5.44-2.66-5.64-3.5,2-3.82,4.93S218,128.26,219.8,128.46Z"/><line class="cls-7" x1="24.15" y1="462.93" x2="489.94" y2="462.93"/></g></svg>